<?xml version="1.0" standalone="no"?>
<!DOCTYPE svg PUBLIC "-//W3C//DTD SVG 20010904//EN"
 "http://www.w3.org/TR/2001/REC-SVG-20010904/DTD/svg10.dtd">
<svg version="1.0" xmlns="http://www.w3.org/2000/svg"
 width="295.000000pt" height="81.000000pt" viewBox="0 0 295.000000 81.000000"
 preserveAspectRatio="xMidYMid meet">

<g transform="translate(0.000000,81.000000) scale(0.100000,-0.100000)"
fill="#000000" stroke="none">
<path d="M512 784 c-40 -24 -42 -27 -42 -74 0 -47 2 -50 44 -75 l43 -25 47 26
c45 25 46 27 46 75 0 48 0 49 -48 73 l-49 25 -41 -25z"/>
<path d="M273 734 l-83 -46 0 -91 0 -92 85 -48 86 -47 84 47 c82 45 85 48 85
82 0 33 -5 39 -53 66 l-52 31 -3 57 c-3 51 -6 58 -32 72 -16 8 -30 15 -32 15
-2 -1 -40 -21 -85 -46z"/>
<path d="M998 564 c-34 -18 -48 -43 -48 -86 0 -53 23 -75 103 -99 82 -25 97
-34 97 -60 0 -47 -88 -52 -148 -9 l-41 30 -15 -22 c-15 -21 -14 -24 11 -50 34
-36 83 -51 145 -46 65 7 112 50 112 103 0 50 -30 75 -122 105 -54 18 -78 30
-80 43 -10 51 66 64 118 20 l32 -27 18 25 c17 21 17 26 3 41 -41 45 -132 61
-185 32z"/>
<path d="M2253 561 c-27 -17 -33 -18 -43 -5 -17 20 -33 18 -49 -8 -12 -20 -11
-24 13 -44 25 -22 26 -27 26 -124 l0 -100 -30 0 c-27 0 -30 -3 -30 -30 l0 -31
108 3 107 3 3 28 c3 26 2 27 -42 27 l-46 0 0 104 c0 83 3 108 16 121 26 26 67
15 84 -22 12 -25 21 -33 43 -33 32 0 35 16 11 66 -30 62 -109 82 -171 45z"/>
<path d="M2596 564 c-9 -8 -16 -11 -16 -5 0 6 -16 11 -35 11 l-35 0 0 -175 0
-175 35 0 34 0 3 141 c3 122 5 143 21 153 12 8 22 8 35 0 15 -10 17 -31 20
-153 l3 -141 34 0 35 0 0 133 c0 146 8 171 51 165 l24 -3 3 -147 3 -148 34 0
35 0 0 145 c0 186 -12 215 -89 215 -16 0 -40 -9 -53 -20 -25 -19 -26 -19 -43
0 -22 24 -77 26 -99 4z"/>
<path d="M1280 558 c0 -7 11 -84 25 -171 14 -87 25 -161 25 -163 0 -7 110 -4
110 4 2 34 40 275 44 279 3 4 6 -4 6 -16 0 -13 7 -79 17 -147 l16 -124 53 0
c62 0 55 -14 84 175 12 77 24 148 26 158 4 14 -1 17 -30 17 -22 0 -36 -5 -36
-12 -1 -24 -39 -270 -43 -274 -2 -2 -9 45 -16 104 -6 59 -15 124 -18 145 l-6
37 -52 0 c-61 0 -57 9 -75 -140 -20 -167 -22 -167 -44 -10 l-21 145 -33 3
c-21 2 -32 -1 -32 -10z"/>
<path d="M1760 540 l0 -30 106 0 c80 0 105 -3 102 -12 -3 -7 -44 -36 -93 -64
-108 -63 -139 -95 -131 -138 8 -39 41 -73 77 -81 21 -5 46 2 94 26 l65 33 33
-32 33 -32 22 23 22 23 -30 22 -30 23 0 134 0 135 -135 0 -135 0 0 -30z m210
-163 c0 -30 -6 -36 -63 -70 -35 -20 -69 -37 -75 -37 -17 0 -32 34 -22 49 8 13
138 90 153 91 4 0 7 -15 7 -33z"/>
<path d="M77 404 l-77 -45 0 -92 0 -92 84 -47 85 -47 85 47 86 47 0 92 0 92
-81 45 c-45 25 -86 46 -93 46 -6 0 -46 -21 -89 -46z"/>
<path d="M468 407 l-78 -42 0 -97 0 -96 82 -45 83 -45 80 43 80 44 3 98 2 98
-79 43 c-44 23 -83 42 -88 42 -4 -1 -43 -20 -85 -43z"/>
</g>
</svg>
